<?xml version="1.0" encoding="UTF-8" standalone="no"?>
<svg
   xmlns:dc="http://purl.org/dc/elements/1.1/"
   xmlns:cc="http://creativecommons.org/ns#"
   xmlns:rdf="http://www.w3.org/1999/02/22-rdf-syntax-ns#"
   xmlns:svg="http://www.w3.org/2000/svg"
   xmlns="http://www.w3.org/2000/svg"
   xmlns:xlink="http://www.w3.org/1999/xlink"
   xmlns:sodipodi="http://sodipodi.sourceforge.net/DTD/sodipodi-0.dtd"
   xmlns:inkscape="http://www.inkscape.org/namespaces/inkscape"
   width="244.77"
   height="358.004"
   viewBox="0 0 64.762 94.722"
   version="1.1"
   id="svg391"
   sodipodi:docname="Seal of Bojonegoro (1).svg"
   inkscape:version="1.0.1 (3bc2e813f5, 2020-09-07)">
  <metadata
     id="metadata395">
    <rdf:RDF>
      <cc:Work
         rdf:about="">
        <dc:format>image/svg+xml</dc:format>
        <dc:type
           rdf:resource="http://purl.org/dc/dcmitype/StillImage" />
      </cc:Work>
    </rdf:RDF>
  </metadata>
  <sodipodi:namedview
     pagecolor="#ffffff"
     bordercolor="#666666"
     borderopacity="1"
     objecttolerance="10"
     gridtolerance="10"
     guidetolerance="10"
     inkscape:pageopacity="0"
     inkscape:pageshadow="2"
     inkscape:window-width="1366"
     inkscape:window-height="705"
     id="namedview393"
     showgrid="false"
     inkscape:zoom="1.2567875"
     inkscape:cx="89.191517"
     inkscape:cy="144.65439"
     inkscape:window-x="-8"
     inkscape:window-y="-8"
     inkscape:window-maximized="1"
     inkscape:current-layer="svg391" />
  <style
     id="style2"><![CDATA[.B{fill:#fff212}.C{fill:#fffcbf}.D{stroke:#a9a000}.E{stroke-width:.265}.F{fill:#fff}.G{stroke-width:.297}.H{opacity:.999}.I{stroke:#c3c3c3}.J{fill:#00a859}.K{stroke:#00713c}.L{opacity:.998}.M{stroke-width:.283}.N{stroke-width:.303}.O{fill-rule:evenodd}]]></style>
  <defs
     id="defs25">
    <linearGradient
       id="A"
       gradientUnits="userSpaceOnUse">
      <stop
         offset="0"
         stop-color="#c5ba00"
         id="stop4" />
      <stop
         offset="1"
         stop-color="#fff212"
         id="stop6" />
    </linearGradient>
    <linearGradient
       id="B"
       x1="122.385"
       y1="231.597"
       x2="122.385"
       y2="193.356"
       gradientUnits="userSpaceOnUse">
      <stop
         offset="0"
         stop-color="#0080af"
         id="stop9" />
      <stop
         offset="1"
         stop-color="#00afef"
         id="stop11" />
    </linearGradient>
    <linearGradient
       xlink:href="#A"
       id="C"
       x1="163.321"
       y1="216.951"
       x2="151.178"
       y2="223.224" />
    <linearGradient
       xlink:href="#A"
       id="D"
       x1="188.516"
       y1="216.951"
       x2="200.659"
       y2="223.224" />
    <path
       id="E"
       d="M97.975 190.027c2.39-.38 3.396.464 4.522 1.202 1.028-.683 2.28-.972 3.961-.501 1.669-.984 2.425-.325 3.015.033.717-.632 1.337-.525 1.963-.467" />
    <path
       id="F"
       d="M86.274 172.098c-1.916-3.289-2.927-3.09-4.679-3.778.575 1.762 1.853 2.983 4.679 3.778z" />
    <path
       id="G"
       d="M82.906 169.377c1.419.306 1.656.841 2.013 1.651-.648-.625-1.276-.918-2.013-1.651z" />
    <path
       id="H"
       d="M90.237 182.282c1.378-1.685 1.74-3.156.968-5.864-1.247 1.77-1.834 3.142-.968 5.864z" />
    <path
       id="I"
       d="M90.312 180.838c-.373-1.859.005-2.07.664-3.218-.045 1.398-.294 1.966-.664 3.218z" />
    <path
       id="J"
       d="M93.643 186.667c1.106-1.874 1.241-3.383.067-5.943-.964 1.938-1.336 3.384-.067 5.943z" />
    <path
       id="K"
       d="M93.498 185.228c-.651-1.781-.309-2.047.169-3.282.168 1.389.008 1.988-.169 3.282z" />
    <path
       id="L"
       d="M183.177 187.406c.026-2.573 1.3-2.392 1.772-2.032 1.682-.805 2.018.605 2.173.945 1.669.125 1.913 1.528 1.488 2.551 1.398.017.725 1.001.307 1.866.388 3.48-2.802 2.038-2.953 1.37l-2.197-2.457z" />
    <path
       id="M"
       d="M181.466 191.904l1.335-.616c1.657.059 2.941.678 3.842 1.871.057-.65-.84-1.496.869-1.804-.598-.245-1.091-.569-1.437-1.002.759-.49 1.22-.98 1.67-1.47-.866.309-1.542.428-1.904.234-.354-.587-.152-1.035-.167-1.537l-1.37.2c-.787-.189-.769-.862-.969-1.403-.879 1.232-.691 2.619-1.37 3.909l-.923.522z" />
  </defs>
  <g
     id="g1523">
    <path
       d="m 32.381,2.616 v 70.923 c -5.355,0 -9.197,1.265 -13.796,3.024 C 16.045,66.729 7.107,61.287 0.159,57.428 4.129,44.954 3.666,32.309 1.104,19.583 12.503,15.42 16.17,7.765 19.956,0.164 c 3.75,1.367 7.276,2.451 12.425,2.451 z"
       fill="#ff0000"
       id="path27" />
    <path
       d="m 32.381,2.616 v 70.923 c 5.355,0 9.197,1.265 13.796,3.024 C 48.717,66.729 57.655,61.287 64.603,57.428 60.633,44.954 61.096,32.309 63.658,19.583 52.259,15.42 48.592,7.765 44.806,0.164 41.056,1.531 37.53,2.615 32.381,2.615 Z"
       class="F"
       id="path29" />
    <path
       d="M 19.956,0.165 C 16.17,7.766 12.503,15.42 1.104,19.583 c 2.562,12.726 3.025,25.37 -0.945,37.845 6.948,3.859 15.886,9.302 18.426,19.135 4.599,-1.759 8.441,-3.024 13.796,-3.024 5.355,0 9.198,1.266 13.796,3.024 C 48.717,66.729 57.655,61.287 64.603,57.428 60.633,44.954 61.096,32.309 63.658,19.583 52.259,15.42 48.592,7.765 44.806,0.165 41.056,1.532 37.529,2.616 32.38,2.616 27.231,2.616 23.705,1.532 19.955,0.165 Z"
       fill="none"
       stroke="#000000"
       class="E"
       id="path31" />
  </g>
  <g
     class="F E"
     id="g61"
     transform="translate(-72.619,-132.221)">
    <g
       stroke="#000000"
       class="O"
       id="g43">
      <path
         d="m 94.369,182.199 h 21.261 v 1.309 H 94.369 Z"
         class="L"
         id="path33" />
      <path
         d="m 95.645,180.89 h 18.71 v 1.309 h -18.71 z"
         class="L"
         id="path35" />
      <path
         d="m 96.921,179.581 h 16.158 v 1.309 H 96.921 Z"
         class="L"
         id="path37" />
      <path
         d="m 97.96,178.272 h 14.08 v 1.309 H 97.96 Z"
         class="L"
         id="path39" />
      <path
         d="m 99.189,176.964 h 11.623 v 1.309 H 99.189 Z"
         class="L"
         id="path41" />
    </g>
    <g
       stroke="#000000"
       id="g59">
      <path
         d="m 102.815,153.458 -2.126,23.506 h 4.311 4.311 l -2.126,-23.506 H 105 Z"
         id="path45" />
      <path
         d="m 103.482,153.458 -1.036,23.506 m 1.521,0 0.401,-23.506 m 2.15,0 1.036,23.506 m -1.521,0 -0.401,-23.506"
         id="path47" />
      <g
         class="O"
         id="g55">
        <path
           d="m 101.965,152.14 h 6.07 v 1.289 h -6.07 z"
           class="L"
           id="path49" />
        <path
           d="m 102.135,150.79 h 5.73 v 1.349 h -5.73 z"
           class="L"
           id="path51" />
        <path
           d="m 102.586,149.053 h 4.828 v 1.737 h -4.828 z"
           class="L"
           id="path53" />
      </g>
      <path
         d="m 105,146.013 c -0.912,0.5 -1.788,1.052 -2.305,2.121 v 0.919 h 2.305 2.305 v -0.919 c -0.517,-1.07 -1.393,-1.622 -2.305,-2.121 z"
         id="path57" />
    </g>
  </g>
  <g
     id="g1671">
    <g
       stroke="#00709a"
       id="g73"
       transform="translate(-72.619,-132.221)">
      <path
         d="m 122.385,193.836 v 0.019 H 68.629 c 8.95,14.068 27.845,29.651 53.756,37.742 v -0.019 c 25.91,-8.091 44.806,-23.674 53.756,-37.742 z"
         transform="matrix(0.264583,0,0,0.264583,72.619033,132.22147)"
         fill="url(#B)"
         stroke-width="1.024"
         id="path63"
         style="fill:url(#B)" />
      <g
         fill="none"
         stroke-width="0.271"
         id="g71">
        <path
           id="use65"
           d="m 97.975,190.027 c 2.39,-0.38 3.396,0.464 4.522,1.202 1.028,-0.683 2.28,-0.972 3.961,-0.501 1.669,-0.984 2.425,-0.325 3.015,0.033 0.717,-0.632 1.337,-0.525 1.963,-0.467" />
        <path
           id="use67"
           d="m 97.975,188.44 c 2.39,-0.38 3.396,0.464 4.522,1.202 1.028,-0.683 2.28,-0.972 3.961,-0.501 1.669,-0.984 2.425,-0.325 3.015,0.033 0.717,-0.632 1.337,-0.525 1.963,-0.467" />
        <path
           d="m 97.87,186.285 c 2.39,-0.38 3.396,0.464 4.522,1.202 1.028,-0.683 2.28,-0.972 3.961,-0.501 1.669,-0.984 2.425,-0.325 3.015,0.033 1.171,-0.914 2.204,-0.366 3.4,0.137 m -14.443,-2.539 c 2.39,-0.38 3.396,0.464 4.522,1.202 1.028,-0.683 2.631,-1.305 4.452,-0.367 1.669,-0.984 2.881,-0.392 3.471,-0.033 1.171,-0.914 2.309,-0.6 3.506,-0.097"
           id="path69" />
      </g>
    </g>
  </g>
  <g
     class="O"
     id="g81"
     transform="translate(-72.619,-132.221)">
    <path
       d="m 105,135.513 -0.126,0.387 -1.414,4.351 h -4.982 l 4.03,2.929 -1.539,4.738 4.031,-2.929 4.031,2.929 -1.539,-4.738 4.03,-2.929 h -4.982 z"
       fill="#a9a000"
       class="L"
       id="path75" />
    <path
       d="m 105,136.368 1.347,4.147 h 4.36 l -3.527,2.563 1.348,4.148 -3.528,-2.563 -3.528,2.563 1.348,-4.148 -3.527,-2.563 h 4.36 z"
       class="B L"
       id="path77" />
    <path
       d="m 105,136.368 v 6.001 l 1.347,-1.854 h 1.488 2.873 l -5.708,1.855 2.18,0.708 1.348,4.148 L 105,142.37 v 2.293 l -3.528,2.563 3.528,-4.856 -2.18,0.708 -3.527,-2.563 5.707,1.855 -1.347,-1.854 z"
       class="C L"
       id="path79" />
  </g>
  <g
     id="g1663">
    <path
       d="m 23.683,14.513 c -2.87,1.696 -5.192,5.289 -7.48,9.631 -2.316,4.395 -3.529,9.662 -2.798,14.975 1.448,10.52 8.344,21.862 26.753,24.675 l 1.537,-1.748 C 37.599,62.22 32.666,61.663 29.67,60.307 18.906,55.432 14.702,47.197 13.777,39.04 c -0.586,-5.173 0.393,-10.4 2.668,-14.79 2.243,-4.328 4.635,-7.824 7.377,-9.51 z"
       fill="#a9a000"
       id="path83" />
    <path
       d="m 22.588,15.218 c 2.895,-2.083 2.119,-3.693 2.055,-5.395 -1.335,1.315 -2.435,2.805 -2.055,5.395 z"
       class="B D E"
       id="path85" />
    <path
       d="m 24.212,11.363 c 0.273,1.255 -0.39,1.874 -0.969,2.551 z"
       class="C"
       id="path87" />
    <path
       d="m 22.538,15.469 c 1.894,0.543 3.807,0.196 5.746,-1.353 -1.915,-0.408 -3.831,-0.277 -5.746,1.353 z"
       class="B D E"
       id="path89" />
    <path
       d="m 23.787,15.12 c 1.389,-0.937 2.239,-0.923 3.425,-0.78 -1.165,0.44 -2.26,0.653 -3.425,0.78 z"
       class="C"
       id="path91" />
    <path
       d="m 20.673,17.167 c 2.696,-2.335 1.778,-3.869 1.561,-5.558 -1.211,1.43 -2.173,3.012 -1.561,5.558 z m -0.027,0.254 c 1.935,0.371 3.81,-0.147 5.601,-1.864 -1.944,-0.234 -3.84,0.069 -5.601,1.864 z"
       class="B D E"
       id="path93" />
    <path
       d="m 21.944,13.182 c 0.385,1.225 -0.22,1.902 -0.735,2.628 z m -0.086,3.779 c 1.299,-1.058 2.147,-1.121 3.341,-1.085 -1.121,0.543 -2.192,0.854 -3.341,1.085 z"
       class="C"
       id="path95" />
    <path
       d="m 19.222,19.345 c 2.305,-2.72 1.163,-4.096 0.69,-5.732 -0.977,1.599 -1.685,3.31 -0.69,5.732 z m 0.012,0.255 c 1.969,0.069 3.742,-0.73 5.249,-2.702 -1.957,0.067 -3.784,0.657 -5.249,2.702 z"
       class="B D E"
       id="path97" />
    <path
       d="m 19.867,15.212 c 0.568,1.152 0.074,1.913 -0.323,2.71 z m 0.495,3.748 c 1.122,-1.245 1.949,-1.437 3.135,-1.584 -1.024,0.709 -2.035,1.18 -3.135,1.584 z"
       class="C"
       id="path99" />
    <path
       d="m 17.562,21.79 c 2.127,-2.862 0.9,-4.162 0.323,-5.764 -0.873,1.658 -1.471,3.411 -0.323,5.764 z m 0.029,0.254 c 1.97,-0.056 3.688,-0.967 5.066,-3.031 -1.949,0.192 -3.735,0.897 -5.066,3.031 z"
       class="B D E"
       id="path101" />
    <path
       d="m 17.942,17.624 c 0.641,1.113 0.196,1.904 -0.15,2.725 z m 0.733,3.708 c 1.04,-1.314 1.854,-1.558 3.028,-1.781 -0.977,0.773 -1.956,1.307 -3.028,1.781 z"
       class="C"
       id="path103" />
    <path
       d="m 16.137,24.324 c 1.896,-3.205 0.486,-4.599 -0.283,-6.345 -0.726,1.847 -1.158,3.79 0.283,6.345 z m 0.056,0.278 c 2.034,-0.117 3.715,-1.165 4.921,-3.472 -1.998,0.265 -3.771,1.089 -4.921,3.472 z"
       class="B D M"
       id="path105" />
    <path
       d="m 16.083,19.734 c 0.783,1.206 0.407,2.088 0.137,2.999 z m 1.157,4.056 c 0.936,-1.473 1.753,-1.764 2.945,-2.042 -0.929,0.877 -1.885,1.491 -2.945,2.042 z"
       class="C"
       id="path107" />
    <g
       class="B D G"
       id="g113"
       transform="translate(-72.619,-132.221)">
      <path
         d="m 87.75,159.071 c 0.862,-4.241 -0.007,-4.714 -0.806,-6.475 -0.789,1.98 -0.698,3.921 0.806,6.475 z"
         id="path109" />
      <path
         d="m 87.76,159.074 c 2.159,-0.276 3.434,-1.095 4.736,-3.591 -2.122,0.427 -3.492,1.02 -4.736,3.591 z"
         id="path111" />
    </g>
    <path
       d="m 14.552,22.188 c 0.819,1.198 0.624,1.839 0.329,2.809 -0.042,-0.99 -0.296,-1.664 -0.329,-2.809 z m 1.637,3.668 c 1.008,-1.606 1.428,-1.499 2.696,-1.879 -0.994,0.984 -1.566,1.225 -2.696,1.879 z"
       class="C"
       id="path115" />
    <path
       d="m 14.345,28.9 c 0.377,-4.311 -0.54,-4.683 -1.533,-6.343 -0.56,2.057 -0.25,3.974 1.533,6.343 z"
       class="B D G"
       id="path117" />
    <path
       d="m 13.243,24.332 c 0.949,1.097 0.828,1.756 0.644,2.754 -0.153,-0.979 -0.483,-1.619 -0.644,-2.754 z"
       class="C"
       id="path119" />
    <path
       d="m 14.289,29.502 c 2.114,-0.518 3.288,-1.476 4.299,-4.104 -2.06,0.665 -3.355,1.408 -4.299,4.104 z"
       class="B D G"
       id="path121" />
    <path
       d="m 15.217,28.393 c 0.82,-1.71 1.249,-1.651 2.466,-2.172 -0.877,1.09 -1.417,1.394 -2.466,2.172 z"
       class="C"
       id="path123" />
    <path
       d="m 13.882,30.775 c -0.48,-4.301 -1.452,-4.484 -2.753,-5.916 -0.143,2.127 0.538,3.946 2.753,5.916 z"
       class="B D G"
       id="path125" />
    <path
       d="m 11.902,26.515 c 1.147,0.889 1.158,1.559 1.174,2.573 -0.343,-0.929 -0.792,-1.492 -1.174,-2.573 z"
       class="C"
       id="path127" />
    <path
       d="m 13.449,33.399 c -0.629,-4.281 -1.607,-4.431 -2.956,-5.817 -0.07,2.13 0.674,3.925 2.956,5.817 z"
       class="B D G"
       id="path129" />
    <path
       d="m 11.322,29.209 c 1.177,0.849 1.212,1.518 1.263,2.531 -0.375,-0.917 -0.844,-1.464 -1.263,-2.531 z"
       class="C"
       id="path131" />
    <path
       d="m 13.399,35.238 c -1.018,-4.206 -2.005,-4.266 -3.476,-5.522 0.125,2.128 1.03,3.847 3.476,5.522 z"
       class="B D G"
       id="path133" />
    <path
       d="m 10.897,31.261 c 1.249,0.737 1.345,1.4 1.489,2.405 -0.458,-0.879 -0.974,-1.381 -1.489,-2.405 z"
       class="C"
       id="path135" />
    <path
       d="m 13.347,37.059 c -1.272,-3.588 -2.303,-3.58 -3.897,-4.581 0.238,1.839 1.267,3.275 3.897,4.581 z"
       class="B D M"
       id="path137" />
    <path
       d="m 10.543,33.76 c 1.338,0.564 1.471,1.133 1.671,1.996 -0.521,-0.735 -1.083,-1.139 -1.671,-1.996 z"
       class="C"
       id="path139" />
    <g
       transform="rotate(6.931,1146.9899,-494.71723)"
       id="g145">
      <path
         id="use141"
         d="m 86.274,172.098 c -1.916,-3.289 -2.927,-3.09 -4.679,-3.778 0.575,1.762 1.853,2.983 4.679,3.778 z"
         style="fill:#fff212;stroke:#a9a000;stroke-width:0.283" />
      <path
         id="use143"
         d="m 82.906,169.377 c 1.419,0.306 1.656,0.841 2.013,1.651 -0.648,-0.625 -1.276,-0.918 -2.013,-1.651 z"
         style="fill:#fffcbf" />
    </g>
    <g
       transform="rotate(-4.128,-1777.4115,1114.686)"
       id="g151">
      <path
         id="use147"
         d="m 86.676,174.697 c -1.916,-3.289 -2.927,-3.09 -4.679,-3.778 0.575,1.762 1.853,2.983 4.679,3.778 z"
         style="fill:#fff212;stroke:#a9a000;stroke-width:0.283" />
      <path
         id="use149"
         d="m 83.332,171.999 c 1.419,0.306 1.656,0.841 2.013,1.651 -0.648,-0.625 -1.276,-0.918 -2.013,-1.651 z"
         style="fill:#fffcbf" />
    </g>
    <path
       d="m 14.79,45.122 c -2.287,-3.043 -3.268,-2.727 -5.088,-3.206 0.777,1.683 2.188,2.746 5.088,3.206 z"
       class="B D M"
       id="path153" />
    <path
       d="m 11.098,42.518 c 1.434,0.227 1.7,0.747 2.101,1.537 -0.682,-0.588 -1.325,-0.846 -2.101,-1.537 z"
       class="C"
       id="path155" />
    <path
       d="m 15.775,47.555 c -2.288,-3.042 -3.269,-2.726 -5.09,-3.203 0.778,1.683 2.19,2.745 5.09,3.203 z"
       class="B D M"
       id="path157" />
    <path
       d="m 12.138,45.268 c 1.445,0.138 1.743,0.641 2.192,1.404 -0.717,-0.545 -1.375,-0.762 -2.192,-1.404 z"
       class="C"
       id="path159" />
    <path
       d="m 16.721,49.342 c -2.641,-2.741 -3.576,-2.308 -5.442,-2.56 0.977,1.576 2.507,2.458 5.442,2.56 z"
       class="B D M"
       id="path161" />
    <path
       d="m 12.833,47.515 c 1.451,-0.039 1.808,0.424 2.347,1.127 -0.778,-0.454 -1.457,-0.589 -2.347,-1.127 z"
       class="C"
       id="path163" />
    <path
       d="m 17.718,50.861 c -3.009,-2.331 -3.872,-1.767 -5.754,-1.748 1.194,1.418 2.836,2.071 5.754,1.748 z"
       class="B D M"
       id="path165" />
    <path
       d="m 13.606,49.614 c 1.43,-0.248 1.85,0.159 2.485,0.776 -0.835,-0.337 -1.527,-0.373 -2.485,-0.776 z"
       class="C"
       id="path167" />
    <path
       d="m 18.578,52.355 c -3.137,-2.155 -3.967,-1.543 -5.845,-1.416 1.273,1.348 2.95,1.905 5.845,1.416 z"
       class="B D M"
       id="path169" />
    <path
       d="m 14.402,51.345 c 1.414,-0.33 1.856,0.053 2.525,0.633 -0.853,-0.289 -1.546,-0.285 -2.525,-0.633 z"
       class="C"
       id="path171" />
    <path
       d="m 22.109,56.059 c -3.383,-2.157 -4.194,-1.415 -6.12,-1.132 1.406,1.401 3.172,1.894 6.12,1.132 z"
       class="B D N"
       id="path173" />
    <path
       d="m 17.736,55.252 c 1.433,-0.473 1.916,-0.082 2.646,0.513 -0.899,-0.256 -1.613,-0.2 -2.646,-0.513 z"
       class="C"
       id="path175" />
    <path
       d="m 23.974,57.348 c -3.664,-1.635 -4.357,-0.781 -6.22,-0.218 1.597,1.178 3.417,1.405 6.22,0.218 z"
       class="B D N"
       id="path177" />
    <path
       d="m 19.529,57.194 c 1.348,-0.679 1.883,-0.363 2.693,0.117 -0.927,-0.121 -1.624,0.04 -2.693,-0.117 z"
       class="C"
       id="path179" />
    <path
       d="m 26.189,58.727 c -3.797,-1.296 -4.41,-0.383 -6.214,0.347 1.697,1.028 3.53,1.09 6.214,-0.347 z"
       class="B D N"
       id="path181" />
    <path
       d="m 21.749,58.978 c 1.281,-0.798 1.842,-0.532 2.692,-0.128 -0.934,-0.036 -1.614,0.187 -2.692,0.128 z"
       class="C"
       id="path183" />
    <path
       d="m 28.045,59.874 c -3.914,-0.885 -4.426,0.089 -6.142,1.006 1.797,0.842 3.626,0.708 6.142,-1.006 z"
       class="B D N"
       id="path185" />
    <path
       d="m 23.657,60.595 c 1.189,-0.93 1.775,-0.725 2.663,-0.413 -0.933,0.063 -1.585,0.358 -2.663,0.413 z"
       class="C"
       id="path187" />
    <path
       d="m 13.911,32.19 c 2.068,-0.68 3.164,-1.725 3.97,-4.423 -2.003,0.822 -3.236,1.663 -3.97,4.423 z"
       class="B D G"
       id="path189" />
    <path
       d="m 14.751,31.013 c 0.685,-1.768 1.118,-1.743 2.291,-2.356 -0.79,1.155 -1.305,1.5 -2.291,2.356 z"
       class="C"
       id="path191" />
    <path
       d="m 13.706,34.631 c 2.019,-0.813 3.045,-1.928 3.673,-4.672 -1.945,0.95 -3.121,1.87 -3.673,4.672 z"
       class="B D G"
       id="path193" />
    <path
       d="m 14.468,33.401 c 0.569,-1.809 1.002,-1.812 2.133,-2.5 -0.713,1.204 -1.205,1.581 -2.133,2.5 z"
       class="C"
       id="path195" />
    <path
       d="m 13.655,37.3 c 1.96,-0.947 2.909,-2.128 3.351,-4.908 -1.877,1.079 -2.988,2.075 -3.351,4.908 z"
       class="B D G"
       id="path197" />
    <path
       d="m 14.333,36.023 c 0.446,-1.843 0.878,-1.875 1.96,-2.637 -0.631,1.249 -1.096,1.659 -1.96,2.637 z"
       class="C"
       id="path199" />
    <path
       d="m 13.818,39.982 c 1.875,-1.105 2.723,-2.361 2.934,-5.168 -1.781,1.23 -2.806,2.315 -2.934,5.168 z"
       class="B D G"
       id="path201" />
    <path
       d="m 14.387,38.653 c 0.292,-1.874 0.72,-1.941 1.735,-2.79 -0.525,1.297 -0.955,1.744 -1.735,2.79 z"
       class="C"
       id="path203" />
    <path
       d="m 14.471,42.479 c 1.729,-1.322 2.42,-2.671 2.292,-5.483 -1.621,1.435 -2.508,2.636 -2.292,5.483 z"
       class="B D G"
       id="path205" />
    <path
       d="m 14.877,41.091 c 0.065,-1.895 0.482,-2.014 1.388,-2.979 -0.366,1.35 -0.739,1.846 -1.388,2.979 z"
       class="C"
       id="path207" />
    <path
       d="m 15.296,45.352 c 1.612,-1.462 2.189,-2.863 1.827,-5.655 -1.495,1.565 -2.28,2.835 -1.827,5.655 z"
       class="B D G"
       id="path209" />
    <path
       d="m 15.585,43.935 c -0.093,-1.894 0.312,-2.047 1.134,-3.084 -0.252,1.376 -0.583,1.901 -1.134,3.084 z"
       class="C"
       id="path211" />
    <path
       d="m 16.377,47.807 c 1.529,-1.549 2.026,-2.98 1.51,-5.748 -1.406,1.646 -2.119,2.958 -1.51,5.748 z"
       class="B D G"
       id="path213" />
    <path
       d="m 16.586,46.376 c -0.198,-1.886 0.198,-2.061 0.961,-3.142 -0.175,1.388 -0.476,1.93 -0.961,3.142 z"
       class="C"
       id="path215" />
    <path
       id="use217"
       d="m 17.618,50.061 c 1.378,-1.685 1.74,-3.156 0.968,-5.864 -1.247,1.77 -1.834,3.142 -0.968,5.864 z"
       style="fill:#fff212;stroke:#a9a000;stroke-width:0.297" />
    <path
       id="use219"
       d="m 17.693,48.617 c -0.373,-1.859 0.005,-2.07 0.664,-3.218 -0.045,1.398 -0.294,1.966 -0.664,3.218 z"
       style="fill:#fffcbf" />
    <path
       id="use221"
       d="m 19.012,52.211 c 1.378,-1.685 1.74,-3.156 0.968,-5.864 -1.247,1.77 -1.834,3.142 -0.968,5.864 z"
       style="fill:#fff212;stroke:#a9a000;stroke-width:0.297" />
    <path
       id="use223"
       d="m 19.087,50.766 c -0.373,-1.859 0.005,-2.07 0.664,-3.218 -0.045,1.398 -0.294,1.966 -0.664,3.218 z"
       style="fill:#fffcbf" />
    <path
       id="use225"
       d="m 21.024,54.446 c 1.106,-1.874 1.241,-3.383 0.067,-5.943 -0.964,1.938 -1.336,3.384 -0.067,5.943 z"
       style="fill:#fff212;stroke:#a9a000;stroke-width:0.297" />
    <path
       id="use227"
       d="m 20.879,53.007 c -0.651,-1.781 -0.309,-2.047 0.169,-3.282 0.168,1.389 0.008,1.988 -0.169,3.282 z"
       style="fill:#fffcbf" />
    <path
       id="use229"
       d="m 22.89,56.289 c 1.106,-1.874 1.241,-3.383 0.067,-5.943 -0.964,1.938 -1.336,3.384 -0.067,5.943 z"
       style="fill:#fff212;stroke:#a9a000;stroke-width:0.297" />
    <path
       id="use231"
       d="m 22.745,54.85 c -0.651,-1.781 -0.309,-2.047 0.169,-3.282 0.168,1.389 0.008,1.988 -0.169,3.282 z"
       style="fill:#fffcbf" />
    <path
       d="m 25.086,57.982 c 0.94,-1.963 0.943,-3.478 -0.447,-5.926 -0.792,2.015 -1.038,3.487 0.447,5.926 z"
       class="B D G"
       id="path233" />
    <path
       d="m 24.817,56.561 c -0.803,-1.718 -0.485,-2.013 -0.116,-3.284 0.287,1.369 0.18,1.98 0.116,3.284 z"
       class="C"
       id="path235" />
    <path
       d="m 27.687,59.574 c 0.73,-2.051 0.575,-3.558 -1.064,-5.847 -0.578,2.086 -0.668,3.576 1.064,5.847 z"
       class="B D G"
       id="path237" />
    <path
       d="m 27.272,58.188 c -0.978,-1.625 -0.692,-1.951 -0.458,-3.254 0.429,1.332 0.385,1.95 0.458,3.254 z"
       class="C"
       id="path239" />
    <path
       d="m 23.845,14.374 c 1.962,-0.187 3.616,-1.209 4.854,-3.359 -1.932,0.32 -3.667,1.142 -4.854,3.359 z"
       class="B D E"
       id="path241" />
    <path
       d="m 24.88,13.592 c 0.951,-1.379 1.747,-1.677 2.904,-1.977 -0.924,0.836 -1.865,1.434 -2.904,1.977 z"
       class="C"
       id="path243" />
    <path
       d="m 20.56,54.38 c -3.224,-2.389 -4.085,-1.705 -6.026,-1.558 1.305,1.496 3.032,2.111 6.026,1.558 z"
       class="B D N"
       id="path245" />
    <path
       d="m 16.254,53.269 c 1.463,-0.371 1.917,0.053 2.604,0.697 -0.879,-0.318 -1.595,-0.312 -2.604,-0.697 z"
       class="C"
       id="path247" />
    <path
       id="use249"
       d="m 13.71,40.89 c -1.916,-3.289 -2.927,-3.09 -4.679,-3.778 0.575,1.762 1.853,2.983 4.679,3.778 z"
       style="fill:#fff212;stroke:#a9a000;stroke-width:0.283" />
    <path
       id="use251"
       d="m 10.366,38.192 c 1.419,0.306 1.656,0.841 2.013,1.651 -0.648,-0.625 -1.276,-0.918 -2.013,-1.651 z"
       style="fill:#fffcbf" />
  </g>
  <g
     id="g1576">
    <g
       transform="matrix(-0.391596,-0.533767,0.517743,-0.350384,14.003087,178.40296)"
       class="E H"
       id="g257">
      <path
         id="use253"
         d="m 183.177,187.406 c 0.026,-2.573 1.3,-2.392 1.772,-2.032 1.682,-0.805 2.018,0.605 2.173,0.945 1.669,0.125 1.913,1.528 1.488,2.551 1.398,0.017 0.725,1.001 0.307,1.866 0.388,3.48 -2.802,2.038 -2.953,1.37 l -2.197,-2.457 z"
         style="fill:#ffffff;stroke:#c3c3c3" />
      <path
         id="use255"
         d="m 181.466,191.904 1.335,-0.616 c 1.657,0.059 2.941,0.678 3.842,1.871 0.057,-0.65 -0.84,-1.496 0.869,-1.804 -0.598,-0.245 -1.091,-0.569 -1.437,-1.002 0.759,-0.49 1.22,-0.98 1.67,-1.47 -0.866,0.309 -1.542,0.428 -1.904,0.234 -0.354,-0.587 -0.152,-1.035 -0.167,-1.537 l -1.37,0.2 c -0.787,-0.189 -0.769,-0.862 -0.969,-1.403 -0.879,1.232 -0.691,2.619 -1.37,3.909 l -0.923,0.522 z"
         style="fill:#00a859;stroke:#00713c" />
    </g>
    <g
       transform="matrix(-0.239123,-0.617313,0.591111,-0.203505,-25.820031,167.54264)"
       class="E H"
       id="g263">
      <path
         id="use259"
         d="m 183.177,187.406 c 0.026,-2.573 1.3,-2.392 1.772,-2.032 1.682,-0.805 2.018,0.605 2.173,0.945 1.669,0.125 1.913,1.528 1.488,2.551 1.398,0.017 0.725,1.001 0.307,1.866 0.388,3.48 -2.802,2.038 -2.953,1.37 l -2.197,-2.457 z"
         style="fill:#ffffff;stroke:#c3c3c3" />
      <path
         id="use261"
         d="m 181.466,191.904 1.335,-0.616 c 1.657,0.059 2.941,0.678 3.842,1.871 0.057,-0.65 -0.84,-1.496 0.869,-1.804 -0.598,-0.245 -1.091,-0.569 -1.437,-1.002 0.759,-0.49 1.22,-0.98 1.67,-1.47 -0.866,0.309 -1.542,0.428 -1.904,0.234 -0.354,-0.587 -0.152,-1.035 -0.167,-1.537 l -1.37,0.2 c -0.787,-0.189 -0.769,-0.862 -0.969,-1.403 -0.879,1.232 -0.691,2.619 -1.37,3.909 l -0.923,0.522 z"
         style="fill:#00a859;stroke:#00713c" />
    </g>
    <g
       transform="matrix(-0.195338,-0.593385,0.570113,-0.156533,-27.944052,156.39487)"
       class="E H"
       id="g269">
      <path
         id="use265"
         d="m 183.177,187.406 c 0.026,-2.573 1.3,-2.392 1.772,-2.032 1.682,-0.805 2.018,0.605 2.173,0.945 1.669,0.125 1.913,1.528 1.488,2.551 1.398,0.017 0.725,1.001 0.307,1.866 0.388,3.48 -2.802,2.038 -2.953,1.37 l -2.197,-2.457 z"
         style="fill:#ffffff;stroke:#c3c3c3" />
      <path
         id="use267"
         d="m 181.466,191.904 1.335,-0.616 c 1.657,0.059 2.941,0.678 3.842,1.871 0.057,-0.65 -0.84,-1.496 0.869,-1.804 -0.598,-0.245 -1.091,-0.569 -1.437,-1.002 0.759,-0.49 1.22,-0.98 1.67,-1.47 -0.866,0.309 -1.542,0.428 -1.904,0.234 -0.354,-0.587 -0.152,-1.035 -0.167,-1.537 l -1.37,0.2 c -0.787,-0.189 -0.769,-0.862 -0.969,-1.403 -0.879,1.232 -0.691,2.619 -1.37,3.909 l -0.923,0.522 z"
         style="fill:#00a859;stroke:#00713c" />
    </g>
    <g
       transform="matrix(-0.141425,-0.608492,0.581839,-0.104859,-38.391474,151.13677)"
       class="E H"
       id="g275">
      <path
         id="use271"
         d="m 183.177,187.406 c 0.026,-2.573 1.3,-2.392 1.772,-2.032 1.682,-0.805 2.018,0.605 2.173,0.945 1.669,0.125 1.913,1.528 1.488,2.551 1.398,0.017 0.725,1.001 0.307,1.866 0.388,3.48 -2.802,2.038 -2.953,1.37 l -2.197,-2.457 z"
         style="fill:#ffffff;stroke:#c3c3c3" />
      <path
         id="use273"
         d="m 181.466,191.904 1.335,-0.616 c 1.657,0.059 2.941,0.678 3.842,1.871 0.057,-0.65 -0.84,-1.496 0.869,-1.804 -0.598,-0.245 -1.091,-0.569 -1.437,-1.002 0.759,-0.49 1.22,-0.98 1.67,-1.47 -0.866,0.309 -1.542,0.428 -1.904,0.234 -0.354,-0.587 -0.152,-1.035 -0.167,-1.537 l -1.37,0.2 c -0.787,-0.189 -0.769,-0.862 -0.969,-1.403 -0.879,1.232 -0.691,2.619 -1.37,3.909 l -0.923,0.522 z"
         style="fill:#00a859;stroke:#00713c" />
    </g>
    <g
       transform="matrix(-0.098996,-0.616817,0.587698,-0.064362,-45.591248,147.2193)"
       class="E H"
       id="g281">
      <path
         id="use277"
         d="m 183.177,187.406 c 0.026,-2.573 1.3,-2.392 1.772,-2.032 1.682,-0.805 2.018,0.605 2.173,0.945 1.669,0.125 1.913,1.528 1.488,2.551 1.398,0.017 0.725,1.001 0.307,1.866 0.388,3.48 -2.802,2.038 -2.953,1.37 l -2.197,-2.457 z"
         style="fill:#ffffff;stroke:#c3c3c3" />
      <path
         id="use279"
         d="m 181.466,191.904 1.335,-0.616 c 1.657,0.059 2.941,0.678 3.842,1.871 0.057,-0.65 -0.84,-1.496 0.869,-1.804 -0.598,-0.245 -1.091,-0.569 -1.437,-1.002 0.759,-0.49 1.22,-0.98 1.67,-1.47 -0.866,0.309 -1.542,0.428 -1.904,0.234 -0.354,-0.587 -0.152,-1.035 -0.167,-1.537 l -1.37,0.2 c -0.787,-0.189 -0.769,-0.862 -0.969,-1.403 -0.879,1.232 -0.691,2.619 -1.37,3.909 l -0.923,0.522 z"
         style="fill:#00a859;stroke:#00713c" />
    </g>
    <g
       transform="matrix(0.044383,-0.623132,0.586878,0.071458,-70.375326,125.29977)"
       class="E H"
       id="g287">
      <path
         id="use283"
         d="m 183.177,187.406 c 0.026,-2.573 1.3,-2.392 1.772,-2.032 1.682,-0.805 2.018,0.605 2.173,0.945 1.669,0.125 1.913,1.528 1.488,2.551 1.398,0.017 0.725,1.001 0.307,1.866 0.388,3.48 -2.802,2.038 -2.953,1.37 l -2.197,-2.457 z"
         style="fill:#ffffff;stroke:#c3c3c3" />
      <path
         id="use285"
         d="m 181.466,191.904 1.335,-0.616 c 1.657,0.059 2.941,0.678 3.842,1.871 0.057,-0.65 -0.84,-1.496 0.869,-1.804 -0.598,-0.245 -1.091,-0.569 -1.437,-1.002 0.759,-0.49 1.22,-0.98 1.67,-1.47 -0.866,0.309 -1.542,0.428 -1.904,0.234 -0.354,-0.587 -0.152,-1.035 -0.167,-1.537 l -1.37,0.2 c -0.787,-0.189 -0.769,-0.862 -0.969,-1.403 -0.879,1.232 -0.691,2.619 -1.37,3.909 l -0.923,0.522 z"
         style="fill:#00a859;stroke:#00713c" />
    </g>
    <g
       transform="matrix(0.109847,-0.630921,0.609709,0.134223,-85.348805,117.9055)"
       class="E H"
       id="g293">
      <path
         id="use289"
         d="m 183.177,187.406 c 0.026,-2.573 1.3,-2.392 1.772,-2.032 1.682,-0.805 2.018,0.605 2.173,0.945 1.669,0.125 1.913,1.528 1.488,2.551 1.398,0.017 0.725,1.001 0.307,1.866 0.388,3.48 -2.802,2.038 -2.953,1.37 l -2.197,-2.457 z"
         style="fill:#ffffff;stroke:#c3c3c3" />
      <path
         id="use291"
         d="m 181.466,191.904 1.335,-0.616 c 1.657,0.059 2.941,0.678 3.842,1.871 0.057,-0.65 -0.84,-1.496 0.869,-1.804 -0.598,-0.245 -1.091,-0.569 -1.437,-1.002 0.759,-0.49 1.22,-0.98 1.67,-1.47 -0.866,0.309 -1.542,0.428 -1.904,0.234 -0.354,-0.587 -0.152,-1.035 -0.167,-1.537 l -1.37,0.2 c -0.787,-0.189 -0.769,-0.862 -0.969,-1.403 -0.879,1.232 -0.691,2.619 -1.37,3.909 l -0.923,0.522 z"
         style="fill:#00a859;stroke:#00713c" />
    </g>
    <g
       transform="matrix(0.21448,-0.603429,0.578417,0.234937,-97.83374,96.76189)"
       class="E H"
       id="g299">
      <path
         id="use295"
         d="m 183.177,187.406 c 0.026,-2.573 1.3,-2.392 1.772,-2.032 1.682,-0.805 2.018,0.605 2.173,0.945 1.669,0.125 1.913,1.528 1.488,2.551 1.398,0.017 0.725,1.001 0.307,1.866 0.388,3.48 -2.802,2.038 -2.953,1.37 l -2.197,-2.457 z"
         style="fill:#ffffff;stroke:#c3c3c3" />
      <path
         id="use297"
         d="m 181.466,191.904 1.335,-0.616 c 1.657,0.059 2.941,0.678 3.842,1.871 0.057,-0.65 -0.84,-1.496 0.869,-1.804 -0.598,-0.245 -1.091,-0.569 -1.437,-1.002 0.759,-0.49 1.22,-0.98 1.67,-1.47 -0.866,0.309 -1.542,0.428 -1.904,0.234 -0.354,-0.587 -0.152,-1.035 -0.167,-1.537 l -1.37,0.2 c -0.787,-0.189 -0.769,-0.862 -0.969,-1.403 -0.879,1.232 -0.691,2.619 -1.37,3.909 l -0.923,0.522 z"
         style="fill:#00a859;stroke:#00713c" />
    </g>
    <g
       transform="matrix(0.296765,-0.6183,0.558024,0.322733,-108.60221,86.34059)"
       class="E H"
       id="g305">
      <path
         id="use301"
         d="m 183.177,187.406 c 0.026,-2.573 1.3,-2.392 1.772,-2.032 1.682,-0.805 2.018,0.605 2.173,0.945 1.669,0.125 1.913,1.528 1.488,2.551 1.398,0.017 0.725,1.001 0.307,1.866 0.388,3.48 -2.802,2.038 -2.953,1.37 l -2.197,-2.457 z"
         style="fill:#ffffff;stroke:#c3c3c3" />
      <path
         id="use303"
         d="m 181.466,191.904 1.335,-0.616 c 1.657,0.059 2.941,0.678 3.842,1.871 0.057,-0.65 -0.84,-1.496 0.869,-1.804 -0.598,-0.245 -1.091,-0.569 -1.437,-1.002 0.759,-0.49 1.22,-0.98 1.67,-1.47 -0.866,0.309 -1.542,0.428 -1.904,0.234 -0.354,-0.587 -0.152,-1.035 -0.167,-1.537 l -1.37,0.2 c -0.787,-0.189 -0.769,-0.862 -0.969,-1.403 -0.879,1.232 -0.691,2.619 -1.37,3.909 l -0.923,0.522 z"
         style="fill:#00a859;stroke:#00713c" />
    </g>
    <g
       transform="matrix(0.360445,-0.583476,0.520792,0.379898,-113.00036,71.97032)"
       class="E H"
       id="g311">
      <path
         id="use307"
         d="m 183.177,187.406 c 0.026,-2.573 1.3,-2.392 1.772,-2.032 1.682,-0.805 2.018,0.605 2.173,0.945 1.669,0.125 1.913,1.528 1.488,2.551 1.398,0.017 0.725,1.001 0.307,1.866 0.388,3.48 -2.802,2.038 -2.953,1.37 l -2.197,-2.457 z"
         style="fill:#ffffff;stroke:#c3c3c3" />
      <path
         id="use309"
         d="m 181.466,191.904 1.335,-0.616 c 1.657,0.059 2.941,0.678 3.842,1.871 0.057,-0.65 -0.84,-1.496 0.869,-1.804 -0.598,-0.245 -1.091,-0.569 -1.437,-1.002 0.759,-0.49 1.22,-0.98 1.67,-1.47 -0.866,0.309 -1.542,0.428 -1.904,0.234 -0.354,-0.587 -0.152,-1.035 -0.167,-1.537 l -1.37,0.2 c -0.787,-0.189 -0.769,-0.862 -0.969,-1.403 -0.879,1.232 -0.691,2.619 -1.37,3.909 l -0.923,0.522 z"
         style="fill:#00a859;stroke:#00713c" />
    </g>
    <g
       transform="matrix(0.500365,-0.539259,0.449413,0.518781,-125.46983,40.6439)"
       class="E H"
       id="g317">
      <path
         id="use313"
         d="m 183.177,187.406 c 0.026,-2.573 1.3,-2.392 1.772,-2.032 1.682,-0.805 2.018,0.605 2.173,0.945 1.669,0.125 1.913,1.528 1.488,2.551 1.398,0.017 0.725,1.001 0.307,1.866 0.388,3.48 -2.802,2.038 -2.953,1.37 l -2.197,-2.457 z"
         style="fill:#ffffff;stroke:#c3c3c3" />
      <path
         id="use315"
         d="m 181.466,191.904 1.335,-0.616 c 1.657,0.059 2.941,0.678 3.842,1.871 0.057,-0.65 -0.84,-1.496 0.869,-1.804 -0.598,-0.245 -1.091,-0.569 -1.437,-1.002 0.759,-0.49 1.22,-0.98 1.67,-1.47 -0.866,0.309 -1.542,0.428 -1.904,0.234 -0.354,-0.587 -0.152,-1.035 -0.167,-1.537 l -1.37,0.2 c -0.787,-0.189 -0.769,-0.862 -0.969,-1.403 -0.879,1.232 -0.691,2.619 -1.37,3.909 l -0.923,0.522 z"
         style="fill:#00a859;stroke:#00713c" />
    </g>
    <g
       transform="matrix(0.548751,-0.609193,0.492872,0.586059,-143.30507,44.28232)"
       class="E H"
       id="g323">
      <path
         id="use319"
         d="m 183.177,187.406 c 0.026,-2.573 1.3,-2.392 1.772,-2.032 1.682,-0.805 2.018,0.605 2.173,0.945 1.669,0.125 1.913,1.528 1.488,2.551 1.398,0.017 0.725,1.001 0.307,1.866 0.388,3.48 -2.802,2.038 -2.953,1.37 l -2.197,-2.457 z"
         style="fill:#ffffff;stroke:#c3c3c3" />
      <path
         id="use321"
         d="m 181.466,191.904 1.335,-0.616 c 1.657,0.059 2.941,0.678 3.842,1.871 0.057,-0.65 -0.84,-1.496 0.869,-1.804 -0.598,-0.245 -1.091,-0.569 -1.437,-1.002 0.759,-0.49 1.22,-0.98 1.67,-1.47 -0.866,0.309 -1.542,0.428 -1.904,0.234 -0.354,-0.587 -0.152,-1.035 -0.167,-1.537 l -1.37,0.2 c -0.787,-0.189 -0.769,-0.862 -0.969,-1.403 -0.879,1.232 -0.691,2.619 -1.37,3.909 l -0.923,0.522 z"
         style="fill:#00a859;stroke:#00713c" />
    </g>
    <g
       transform="matrix(0.635335,-0.51826,0.397606,0.654444,-142.46219,17.77488)"
       class="E H"
       id="g329">
      <path
         id="use325"
         d="m 183.177,187.406 c 0.026,-2.573 1.3,-2.392 1.772,-2.032 1.682,-0.805 2.018,0.605 2.173,0.945 1.669,0.125 1.913,1.528 1.488,2.551 1.398,0.017 0.725,1.001 0.307,1.866 0.388,3.48 -2.802,2.038 -2.953,1.37 l -2.197,-2.457 z"
         style="fill:#ffffff;stroke:#c3c3c3" />
      <path
         id="use327"
         d="m 181.466,191.904 1.335,-0.616 c 1.657,0.059 2.941,0.678 3.842,1.871 0.057,-0.65 -0.84,-1.496 0.869,-1.804 -0.598,-0.245 -1.091,-0.569 -1.437,-1.002 0.759,-0.49 1.22,-0.98 1.67,-1.47 -0.866,0.309 -1.542,0.428 -1.904,0.234 -0.354,-0.587 -0.152,-1.035 -0.167,-1.537 l -1.37,0.2 c -0.787,-0.189 -0.769,-0.862 -0.969,-1.403 -0.879,1.232 -0.691,2.619 -1.37,3.909 l -0.923,0.522 z"
         style="fill:#00a859;stroke:#00713c" />
    </g>
    <g
       transform="matrix(0.726474,-0.348413,0.327495,0.751446,-147.76653,-28.57658)"
       class="E H"
       id="g335">
      <path
         id="use331"
         d="m 183.177,187.406 c 0.026,-2.573 1.3,-2.392 1.772,-2.032 1.682,-0.805 2.018,0.605 2.173,0.945 1.669,0.125 1.913,1.528 1.488,2.551 1.398,0.017 0.725,1.001 0.307,1.866 0.388,3.48 -2.802,2.038 -2.953,1.37 l -2.197,-2.457 z"
         style="fill:#ffffff;stroke:#c3c3c3" />
      <path
         id="use333"
         d="m 181.466,191.904 1.335,-0.616 c 1.657,0.059 2.941,0.678 3.842,1.871 0.057,-0.65 -0.84,-1.496 0.869,-1.804 -0.598,-0.245 -1.091,-0.569 -1.437,-1.002 0.759,-0.49 1.22,-0.98 1.67,-1.47 -0.866,0.309 -1.542,0.428 -1.904,0.234 -0.354,-0.587 -0.152,-1.035 -0.167,-1.537 l -1.37,0.2 c -0.787,-0.189 -0.769,-0.862 -0.969,-1.403 -0.879,1.232 -0.691,2.619 -1.37,3.909 l -0.923,0.522 z"
         style="fill:#00a859;stroke:#00713c" />
    </g>
    <g
       transform="matrix(0.81431,-0.201068,0.207244,0.790043,-143.16881,-60.277839)"
       class="E H"
       id="g341">
      <path
         id="use337"
         d="m 183.177,187.406 c 0.026,-2.573 1.3,-2.392 1.772,-2.032 1.682,-0.805 2.018,0.605 2.173,0.945 1.669,0.125 1.913,1.528 1.488,2.551 1.398,0.017 0.725,1.001 0.307,1.866 0.388,3.48 -2.802,2.038 -2.953,1.37 l -2.197,-2.457 z"
         style="fill:#ffffff;stroke:#c3c3c3" />
      <path
         id="use339"
         d="m 181.466,191.904 1.335,-0.616 c 1.657,0.059 2.941,0.678 3.842,1.871 0.057,-0.65 -0.84,-1.496 0.869,-1.804 -0.598,-0.245 -1.091,-0.569 -1.437,-1.002 0.759,-0.49 1.22,-0.98 1.67,-1.47 -0.866,0.309 -1.542,0.428 -1.904,0.234 -0.354,-0.587 -0.152,-1.035 -0.167,-1.537 l -1.37,0.2 c -0.787,-0.189 -0.769,-0.862 -0.969,-1.403 -0.879,1.232 -0.691,2.619 -1.37,3.909 l -0.923,0.522 z"
         style="fill:#00a859;stroke:#00713c" />
    </g>
    <g
       transform="matrix(0.880876,-0.094215,0.094215,0.880876,-136.6385,-94.179842)"
       class="E H"
       id="g347">
      <path
         id="use343"
         d="m 183.177,187.406 c 0.026,-2.573 1.3,-2.392 1.772,-2.032 1.682,-0.805 2.018,0.605 2.173,0.945 1.669,0.125 1.913,1.528 1.488,2.551 1.398,0.017 0.725,1.001 0.307,1.866 0.388,3.48 -2.802,2.038 -2.953,1.37 l -2.197,-2.457 z"
         style="fill:#ffffff;stroke:#c3c3c3" />
      <path
         id="use345"
         d="m 181.466,191.904 1.335,-0.616 c 1.657,0.059 2.941,0.678 3.842,1.871 0.057,-0.65 -0.84,-1.496 0.869,-1.804 -0.598,-0.245 -1.091,-0.569 -1.437,-1.002 0.759,-0.49 1.22,-0.98 1.67,-1.47 -0.866,0.309 -1.542,0.428 -1.904,0.234 -0.354,-0.587 -0.152,-1.035 -0.167,-1.537 l -1.37,0.2 c -0.787,-0.189 -0.769,-0.862 -0.969,-1.403 -0.879,1.232 -0.691,2.619 -1.37,3.909 l -0.923,0.522 z"
         style="fill:#00a859;stroke:#00713c" />
    </g>
    <g
       class="E H"
       id="g353"
       transform="translate(-72.619,-132.221)">
      <path
         id="use349"
         d="m 111.281,187.406 c 0.026,-2.573 1.3,-2.392 1.772,-2.032 1.682,-0.805 2.018,0.605 2.173,0.945 1.669,0.125 1.913,1.528 1.488,2.551 1.398,0.017 0.725,1.001 0.307,1.866 0.388,3.48 -2.802,2.038 -2.953,1.37 l -2.197,-2.457 z"
         style="fill:#ffffff;stroke:#c3c3c3" />
      <path
         d="m 96.205,193.927 0.835,2.038 c 4.756,-1.357 9.591,-2.596 13.865,-4.677 1.657,0.059 2.941,0.678 3.842,1.871 0.057,-0.65 -0.84,-1.496 0.869,-1.804 -0.598,-0.245 -1.091,-0.569 -1.437,-1.002 0.759,-0.49 1.22,-0.98 1.67,-1.47 -0.866,0.309 -1.542,0.428 -1.904,0.234 -0.354,-0.587 -0.152,-1.035 -0.167,-1.537 a 18.09,18.09 0 0 1 -1.37,0.2 c -0.787,-0.189 -0.769,-0.862 -0.969,-1.403 -0.879,1.232 -0.691,2.619 -1.37,3.909 -5.023,2.997 -9.38,3.037 -13.865,3.642 z"
         class="J K"
         id="path351" />
    </g>
  </g>
  <g
     id="g1513">
    <g
       transform="matrix(0.973836,0,0,1,-138.93505,-132.221)"
       stroke-linejoin="round"
       class="D"
       id="g367">
      <g
         stroke-width="0.214"
         id="g363">
        <path
           d="m 193.248,214.827 -3.014,4.206 c 2.1,1.838 4.728,3.685 7.5,4.486 2.772,0.801 4.362,1.42 6.344,3.329 l -2.418,-4.451 c 1.272,-0.294 2.995,0.068 5.295,1.27 -2.659,-2.155 -4.035,-3.848 -11.655,-5.94 -1.414,-0.875 -1.651,-1.898 -2.051,-2.9 z"
           fill="url(#D)"
           id="path355"
           style="fill:url(#D)" />
        <path
           d="m 199.135,215.754 -3.906,3.931 c -1.775,-1.114 -3.54,-2.146 -4.995,-0.652 -0.468,-2.797 1.908,-2.9 3.014,-4.206 z"
           fill="#c5ba00"
           id="path357" />
        <path
           d="m 158.59,214.827 3.014,4.206 c -2.1,1.838 -4.728,3.685 -7.5,4.486 -2.772,0.801 -4.362,1.42 -6.344,3.329 l 2.418,-4.451 c -1.272,-0.294 -2.995,0.068 -5.295,1.27 2.659,-2.155 4.035,-3.848 11.655,-5.94 1.414,-0.875 1.651,-1.898 2.051,-2.9 z"
           fill="url(#C)"
           id="path359"
           style="fill:url(#C)" />
        <path
           d="m 152.703,215.754 3.906,3.931 c 1.775,-1.114 3.54,-2.146 4.995,-0.652 0.468,-2.797 -1.908,-2.9 -3.014,-4.206 z"
           fill="#c5ba00"
           id="path361" />
      </g>
      <path
         d="m 175.919,208.095 c -10.802,-0.114 -18.999,4.541 -23.216,7.659 0.506,2.146 2.162,3.084 3.906,3.931 3.764,-2.641 10.392,-6.873 19.31,-6.682 8.919,-0.192 15.546,4.04 19.31,6.682 1.744,-0.847 3.4,-1.785 3.906,-3.931 -4.217,-3.117 -12.414,-7.773 -23.216,-7.659 z"
         stroke-width="0.215"
         class="B"
         id="path365" />
    </g>
    <g
       transform="rotate(1.83,4215.0842,-2092.7108)"
       id="g381">
      <path
         d="m 83.927,216.613 0.271,-0.197 0.75,1.035 q 0.182,0.251 0.221,0.41 0.039,0.159 -0.014,0.298 -0.052,0.138 -0.198,0.244 -0.193,0.14 -0.399,0.086 -0.206,-0.054 -0.401,-0.321 l 0.23,-0.221 q 0.109,0.141 0.185,0.178 0.103,0.051 0.19,-0.012 0.085,-0.061 0.082,-0.15 -0.004,-0.089 -0.152,-0.295 z m 1.747,1.234 -1.125,-1.678 1.021,-0.684 0.19,0.284 -0.744,0.499 0.249,0.372 0.691,-0.463 0.189,0.283 -0.691,0.463 0.306,0.457 0.769,-0.516 0.189,0.283 z m 1.286,-0.855 -1.052,-1.725 0.601,-0.367 q 0.231,-0.141 0.358,-0.154 0.127,-0.014 0.261,0.062 0.133,0.075 0.231,0.235 0.123,0.202 0.101,0.385 -0.021,0.182 -0.181,0.323 0.132,0.01 0.24,0.052 0.107,0.041 0.334,0.18 l 0.377,0.232 -0.34,0.207 -0.436,-0.249 q -0.236,-0.135 -0.307,-0.162 -0.072,-0.027 -0.128,-0.019 -0.057,0.007 -0.156,0.068 l -0.059,0.036 0.439,0.72 z m -0.322,-1.169 0.212,-0.129 q 0.194,-0.118 0.237,-0.167 0.042,-0.05 0.044,-0.122 0.001,-0.072 -0.051,-0.158 -0.05,-0.082 -0.113,-0.112 -0.064,-0.03 -0.132,-0.015 -0.048,0.012 -0.24,0.128 l -0.224,0.136 z m 2.315,-0.011 -0.941,-1.788 0.295,-0.155 0.418,0.794 0.181,-1.109 0.399,-0.21 -0.186,0.987 1.156,0.785 -0.383,0.201 -0.845,-0.627 -0.083,0.425 0.284,0.54 z"
         id="path369" />
      <path
         d="m 91.784,214.41 -0.33,0.154 -0.325,-0.354 -0.599,0.28 0.071,0.473 -0.322,0.151 -0.271,-2.103 0.321,-0.15 z m -0.896,-0.463 -0.523,-0.583 0.114,0.774 z m 1.061,0.395 -0.766,-1.869 0.652,-0.267 q 0.25,-0.102 0.378,-0.095 0.127,0.006 0.248,0.103 0.12,0.095 0.191,0.269 0.09,0.219 0.039,0.397 -0.05,0.177 -0.229,0.291 0.129,0.031 0.229,0.089 0.1,0.058 0.302,0.231 l 0.336,0.288 -0.368,0.151 -0.391,-0.315 q -0.212,-0.171 -0.277,-0.208 -0.066,-0.038 -0.123,-0.039 -0.057,-0.002 -0.164,0.042 l -0.064,0.026 0.32,0.78 z m -0.134,-1.205 0.23,-0.094 q 0.21,-0.086 0.26,-0.128 0.05,-0.043 0.062,-0.113 0.013,-0.071 -0.025,-0.164 -0.037,-0.089 -0.094,-0.128 -0.058,-0.04 -0.128,-0.036 -0.049,0.004 -0.257,0.089 l -0.242,0.099 z"
         id="path371" />
      <path
         d="m 93.849,213.593 -0.568,-1.58 -0.463,0.166 -0.116,-0.322 1.238,-0.445 0.116,0.322 -0.462,0.166 0.568,1.58 z m 2.246,-0.738 -0.347,0.108 -0.275,-0.395 -0.631,0.197 0.006,0.479 -0.339,0.106 0.015,-2.121 0.338,-0.105 z m -0.826,-0.58 -0.44,-0.648 0.009,0.783 z m 1.538,0.388 -0.471,-1.965 0.685,-0.164 q 0.263,-0.063 0.388,-0.036 0.125,0.025 0.229,0.139 0.104,0.113 0.147,0.295 0.055,0.231 -0.022,0.398 -0.076,0.167 -0.271,0.252 0.123,0.05 0.212,0.123 0.09,0.072 0.263,0.274 l 0.287,0.336 -0.387,0.093 -0.338,-0.371 q -0.183,-0.201 -0.242,-0.248 -0.06,-0.048 -0.116,-0.057 -0.056,-0.011 -0.169,0.016 l -0.067,0.016 0.196,0.82 z m 0.053,-1.211 0.241,-0.058 q 0.221,-0.053 0.277,-0.086 0.055,-0.035 0.079,-0.103 0.023,-0.068 0,-0.166 -0.022,-0.094 -0.073,-0.141 -0.051,-0.049 -0.121,-0.055 -0.049,-0.004 -0.268,0.048 l -0.255,0.061 z m 3.041,0.558 -0.358,0.066 -0.226,-0.425 -0.65,0.121 -0.05,0.476 -0.35,0.065 0.265,-2.104 0.348,-0.065 z m -0.752,-0.673 -0.361,-0.695 -0.084,0.778 z m 0.928,0.649 -0.266,-2.003 0.331,-0.044 0.105,0.788 0.65,-0.087 -0.105,-0.788 0.332,-0.044 0.266,2.003 -0.332,0.044 -0.116,-0.876 -0.65,0.087 0.116,0.876 z m 3.145,-0.332 -0.363,0.029 -0.181,-0.446 -0.659,0.053 -0.099,0.468 -0.354,0.029 0.481,-2.065 0.353,-0.028 z m -0.678,-0.747 -0.287,-0.729 -0.164,0.765 z m 0.856,0.742 -0.058,-2.019 0.704,-0.02 q 0.27,-0.008 0.387,0.044 0.117,0.05 0.196,0.183 0.078,0.131 0.084,0.319 0.007,0.237 -0.103,0.385 -0.109,0.148 -0.317,0.191 0.11,0.074 0.183,0.164 0.073,0.089 0.201,0.322 l 0.212,0.388 -0.398,0.012 -0.255,-0.432 q -0.138,-0.235 -0.186,-0.292 -0.049,-0.059 -0.102,-0.08 -0.053,-0.022 -0.169,-0.019 l -0.069,0.002 0.024,0.843 z m 0.3,-1.175 0.248,-0.007 q 0.227,-0.007 0.289,-0.028 0.061,-0.022 0.098,-0.084 0.037,-0.062 0.034,-0.162 -0.003,-0.096 -0.043,-0.153 -0.04,-0.058 -0.107,-0.078 -0.047,-0.014 -0.272,-0.007 l -0.262,0.008 z"
         id="path373" />
      <path
         d="m 105.7,209.603 0.335,0.006 -0.021,1.279 q -0.005,0.31 -0.07,0.461 -0.064,0.151 -0.19,0.23 -0.124,0.079 -0.304,0.076 -0.238,-0.004 -0.371,-0.17 -0.132,-0.166 -0.128,-0.497 l 0.316,-0.039 q 0.003,0.178 0.041,0.253 0.052,0.103 0.159,0.105 0.105,0.002 0.156,-0.07 0.051,-0.074 0.055,-0.327 z"
         id="path375" />
      <path
         d="m 107.847,211.73 -0.363,-0.022 -0.116,-0.467 -0.66,-0.041 -0.164,0.45 -0.355,-0.022 0.768,-1.977 0.353,0.022 z m -0.565,-0.836 -0.181,-0.762 -0.27,0.734 z m 1.293,0.91 0.273,-2.002 0.496,0.068 0.112,1.406 0.481,-1.325 0.497,0.068 -0.273,2.002 -0.307,-0.042 0.215,-1.576 -0.541,1.531 -0.32,-0.044 -0.109,-1.62 -0.215,1.576 z m 3.38,0.557 -0.357,-0.069 -0.055,-0.478 -0.65,-0.125 -0.221,0.425 -0.349,-0.067 1.015,-1.862 0.348,0.067 z m -0.454,-0.901 -0.082,-0.779 -0.362,0.694 z m 0.73,0.967 0.109,-2.056 0.333,0.084 -0.098,1.406 0.632,-1.272 0.386,0.097 -0.062,1.439 0.591,-1.306 0.326,0.082 -0.883,1.861 -0.345,-0.087 0.047,-1.545 -0.686,1.385 z m 3.192,0.9 -0.347,-0.108 -0.002,-0.481 -0.632,-0.196 -0.266,0.398 -0.34,-0.105 1.215,-1.738 0.338,0.105 z m -0.351,-0.946 0.005,-0.783 -0.437,0.649 z m 1.048,1.194 0.725,-1.886 0.311,0.12 -0.322,0.837 0.954,-0.594 0.421,0.162 -0.865,0.51 0.171,1.387 -0.404,-0.155 -0.085,-1.049 -0.375,0.218 -0.219,0.57 z"
         id="path377" />
      <path
         d="m 119.039,214.784 -0.333,-0.147 0.053,-0.478 -0.605,-0.267 -0.31,0.365 -0.325,-0.144 1.406,-1.588 0.324,0.143 z m -0.241,-0.98 0.095,-0.778 -0.508,0.595 z m 0.4,1.06 0.902,-1.808 0.63,0.314 q 0.242,0.121 0.321,0.222 0.08,0.1 0.086,0.254 0.007,0.153 -0.077,0.321 -0.106,0.212 -0.273,0.291 -0.166,0.079 -0.37,0.019 0.062,0.117 0.083,0.231 0.022,0.113 0.025,0.379 l 0.004,0.442 -0.356,-0.178 -0.021,-0.502 q -0.011,-0.272 -0.026,-0.346 -0.015,-0.075 -0.052,-0.118 -0.036,-0.044 -0.14,-0.096 l -0.062,-0.031 -0.377,0.755 z m 0.819,-0.894 0.222,0.111 q 0.203,0.102 0.268,0.112 0.065,0.009 0.126,-0.028 0.062,-0.037 0.107,-0.127 0.043,-0.086 0.034,-0.155 -0.008,-0.07 -0.057,-0.12 -0.035,-0.035 -0.236,-0.135 l -0.234,-0.117 z m 0.977,1.819 0.411,-0.744 0.035,-1.317 0.343,0.189 -0.045,0.888 0.722,-0.514 0.336,0.186 -1.1,0.732 -0.41,0.742 z m 2.061,1.209 -0.311,-0.189 0.114,-0.467 -0.566,-0.343 -0.355,0.322 -0.304,-0.184 1.599,-1.393 0.303,0.184 z m -0.112,-1.003 0.194,-0.759 -0.581,0.524 z"
         id="path379" />
    </g>
  </g>
  <g
     id="g1518">
    <path
       d="m 19.46247,71.02 0.944,-0.357 q 0.28,-0.106 0.426,-0.134 0.147,-0.03 0.283,0.003 0.138,0.033 0.257,0.129 0.119,0.095 0.177,0.248 0.063,0.166 0.025,0.339 -0.036,0.172 -0.163,0.299 0.24,-0.019 0.413,0.089 0.173,0.108 0.251,0.312 0.061,0.161 0.043,0.343 -0.017,0.179 -0.113,0.321 -0.095,0.139 -0.277,0.232 -0.114,0.058 -0.569,0.234 l -0.804,0.304 z m 0.626,0.213 0.207,0.546 0.313,-0.118 q 0.279,-0.106 0.343,-0.139 0.117,-0.061 0.16,-0.156 0.044,-0.098 10e-4,-0.212 -0.041,-0.11 -0.128,-0.154 -0.086,-0.047 -0.211,-0.016 -0.074,0.019 -0.411,0.146 z m 0.356,0.939 0.239,0.631 0.441,-0.167 q 0.258,-0.098 0.322,-0.138 0.099,-0.06 0.137,-0.159 0.039,-0.101 -0.009,-0.227 -0.04,-0.106 -0.12,-0.161 -0.08,-0.055 -0.191,-0.051 -0.109,0.003 -0.435,0.126 z m 1.847,-0.846 q -0.109,-0.37 -0.072,-0.654 0.028,-0.209 0.127,-0.398 0.1,-0.189 0.25,-0.311 0.198,-0.163 0.494,-0.25 0.535,-0.158 0.954,0.08 0.42,0.237 0.594,0.829 0.173,0.587 -0.048,1.013 -0.221,0.424 -0.755,0.582 -0.54,0.159 -0.956,-0.076 -0.416,-0.236 -0.587,-0.815 z m 0.499,-0.165 q 0.121,0.411 0.374,0.569 0.252,0.155 0.545,0.069 0.292,-0.086 0.417,-0.351 0.126,-0.267 0.002,-0.688 -0.123,-0.416 -0.367,-0.567 -0.242,-0.151 -0.545,-0.062 -0.302,0.089 -0.426,0.352 -0.124,0.261 -10e-4,0.679 z"
       id="path383" />
    <path
       d="m 25.73447,69.085 0.496,-0.109 0.342,1.562 q 0.067,0.306 0.049,0.483 -0.025,0.231 -0.187,0.404 -0.162,0.171 -0.473,0.239 -0.365,0.08 -0.607,-0.081 -0.242,-0.162 -0.33,-0.557 l 0.458,-0.157 q 0.055,0.21 0.128,0.286 0.11,0.115 0.275,0.079 0.167,-0.036 0.215,-0.146 0.048,-0.111 -0.018,-0.411 z m 1.291,1.025 q -0.054,-0.382 0.024,-0.657 0.058,-0.203 0.184,-0.376 0.127,-0.173 0.292,-0.271 0.22,-0.132 0.525,-0.175 0.553,-0.078 0.932,0.218 0.381,0.296 0.467,0.906 0.085,0.606 -0.195,0.995 -0.281,0.388 -0.832,0.465 -0.558,0.079 -0.935,-0.214 -0.377,-0.295 -0.462,-0.892 z m 0.518,-0.09 q 0.06,0.425 0.287,0.617 0.227,0.191 0.529,0.148 0.302,-0.043 0.464,-0.286 0.164,-0.246 0.102,-0.681 -0.061,-0.43 -0.28,-0.615 -0.217,-0.185 -0.53,-0.141 -0.312,0.044 -0.473,0.286 -0.161,0.24 -0.1,0.672 z m 2.485,0.952 -0.134,-2.522 0.495,-0.026 1.121,1.629 -0.089,-1.684 0.473,-0.025 0.134,2.522 -0.511,0.027 -1.104,-1.591 0.087,1.644 z m 2.541,-0.109 0.074,-2.524 1.872,0.055 -0.013,0.427 -1.362,-0.04 -0.016,0.56 1.267,0.037 -0.012,0.425 -1.267,-0.037 -0.02,0.687 1.41,0.041 -0.012,0.425 z m 3.625,-0.706 0.048,-0.423 1.092,0.125 -0.114,0.999 q -0.177,0.136 -0.493,0.219 -0.315,0.082 -0.624,0.046 -0.394,-0.045 -0.667,-0.243 -0.274,-0.2 -0.386,-0.523 -0.112,-0.325 -0.07,-0.686 0.045,-0.392 0.244,-0.678 0.199,-0.286 0.534,-0.412 0.256,-0.097 0.615,-0.056 0.467,0.054 0.707,0.28 0.241,0.225 0.277,0.58 l -0.514,0.036 q -0.032,-0.191 -0.167,-0.314 -0.133,-0.124 -0.352,-0.15 -0.332,-0.038 -0.553,0.15 -0.219,0.188 -0.267,0.602 -0.051,0.447 0.122,0.694 0.173,0.245 0.495,0.282 0.159,0.018 0.325,-0.025 0.168,-0.045 0.293,-0.121 l 0.037,-0.318 z"
       id="path385" />
    <path
       d="m 37.79547,70.04 q 0.078,-0.378 0.243,-0.611 0.123,-0.172 0.299,-0.292 0.178,-0.12 0.366,-0.157 0.251,-0.05 0.553,0.012 0.547,0.112 0.804,0.519 0.259,0.407 0.135,1.011 -0.123,0.599 -0.519,0.871 -0.395,0.27 -0.94,0.158 -0.552,-0.113 -0.808,-0.516 -0.256,-0.404 -0.135,-0.995 z m 0.518,0.089 q -0.086,0.42 0.063,0.678 0.15,0.256 0.448,0.317 0.299,0.061 0.533,-0.114 0.237,-0.176 0.325,-0.607 0.087,-0.425 -0.057,-0.673 -0.143,-0.247 -0.451,-0.311 -0.309,-0.064 -0.541,0.11 -0.232,0.172 -0.32,0.599 z m 2.017,1.732 0.708,-2.424 1.03,0.301 q 0.389,0.113 0.545,0.231 0.158,0.116 0.215,0.314 0.057,0.198 -0.006,0.413 -0.08,0.273 -0.292,0.405 -0.212,0.13 -0.545,0.083 0.132,0.139 0.202,0.28 0.072,0.141 0.165,0.475 l 0.158,0.559 -0.585,-0.171 -0.2,-0.631 q -0.106,-0.338 -0.154,-0.431 -0.048,-0.095 -0.118,-0.144 -0.07,-0.051 -0.238,-0.1 l -0.099,-0.029 -0.296,1.012 z m 0.898,-1.256 0.362,0.106 q 0.352,0.103 0.449,0.099 0.096,-0.004 0.167,-0.062 0.071,-0.058 0.103,-0.167 0.036,-0.122 -0.009,-0.216 -0.042,-0.095 -0.156,-0.149 -0.057,-0.026 -0.355,-0.113 l -0.382,-0.112 z m 1.884,0.783 q 0.136,-0.361 0.336,-0.565 0.149,-0.15 0.341,-0.241 0.194,-0.091 0.386,-0.097 0.256,-0.01 0.545,0.098 0.522,0.197 0.713,0.638 0.192,0.442 -0.025,1.019 -0.215,0.572 -0.649,0.779 -0.433,0.205 -0.953,0.009 -0.527,-0.198 -0.717,-0.636 -0.19,-0.44 0.023,-1.004 z m 0.498,0.169 q -0.151,0.401 -0.044,0.679 0.108,0.276 0.393,0.384 0.285,0.107 0.545,-0.029 0.261,-0.137 0.416,-0.548 0.153,-0.406 0.049,-0.674 -0.102,-0.267 -0.397,-0.378 -0.295,-0.111 -0.552,0.024 -0.256,0.134 -0.41,0.541 z"
       id="path387" />
  </g>
</svg>
